<?xml version="1.0" encoding="UTF-8"?>
<svg xmlns="http://www.w3.org/2000/svg" width="800" height="800" baseProfile="full">
  <defs>
    <radialGradient id="b" cx="-.1" cy=".1" r="1.2" fx="-.3" fy=".6" gradientUnits="userSpaceOnUse">
      <stop offset="0" stop-color="#b6bbce"/>
      <stop offset=".1" stop-color="#8a94ba"/>
      <stop offset=".3" stop-color="#5f6c99"/>
      <stop offset="1" stop-color="#22326b"/>
    </radialGradient>
    <radialGradient id="a" cx=".1" cy="-.1" r="1.2" fx=".3" fy="-.6" gradientUnits="userSpaceOnUse">
      <stop offset="0" stop-color="#b6bbce"/>
      <stop offset=".1" stop-color="#8a94ba"/>
      <stop offset=".3" stop-color="#5f6c99"/>
      <stop offset="1" stop-color="#22326b"/>
    </radialGradient>
  </defs>
  <g fill="url(#a)" opacity=".2" transform="matrix(400 0 0 -400 400 400)">
    <path d="M.00633-.59949c.05297-.0016.10068-.023.12505-.05608C.1551-.68776.15327-.72632.12654-.75732c-.02803-.0325-.07907-.05169-.13311-.05-.0538.00168-.10205.02378-.12597.05768-.0229.03243-.02015.07091.00726.10157.02826.03162.0785.05018.13161.04858Zm.00064.01233c-.05862.00176-.11409-.01871-.14531-.05361-.03026-.03381-.03334-.07625-.00814-.11205.02638-.03748.07971-.06194.13919-.06381.05979-.00188.11626.01937.14719.05536.02941.03423.03137.07676.00517.11225-.02694.0365-.07962.0601-.1381.06186Z"/>
    <path d="M.0126-.47135c.09225-.0027.1776-.03492.23149-.08735.0525-.05107.06957-.11591.04651-.17672C.26723-.79707.20511-.84799.1217-.87382c-.0857-.02654-.1842-.0236-.26636.00794-.07957.03056-.13514.08462-.15123.1471-.01595.06195.0086.12565.06692.1736.05997.0493.14909.07655.24157.07383Zm.0006.01336c-.09707.00284-.19061-.02574-.25356-.07746-.06121-.05028-.087-.11709-.07028-.18207.01688-.0656.07528-.12237.15889-.15442.08627-.03307.18968-.03612.27963-.00825.08755.02712.15275.08058.17724.14528.02414.06378.00619.13177-.04892.18533-.05659.05497-.14618.08875-.243.09159Z"/>
    <path d="M.01836-.33428c.13685-.00391.26356-.05114.3438-.12813.07802-.07486.10387-.16996.07055-.25937C.39862-.81328.30625-.88902.1818-.92747c-.1272-.0393-.27355-.03521-.39578.01104-.11976.04532-.20314.12611-.22641.21936-.02265.0908.01405.18391.10021.25407.08907.07253.2213.11263.35854.10872Zm.00055.01408c-.14159.00403-.27798-.0373-.36987-.11206-.08882-.07225-.12669-.16814-.10341-.26165.02394-.09617.10997-.17951.23358-.22624.12611-.04769.27712-.0519.40836-.01139.1285.03967.22385.11784.25894.21224.03423.0921.00751.19002-.07294.2671-.08279.07932-.2135.12799-.35466.132Z"/>
    <path d="M.02354-.19114c.17859-.00495.34403-.06579.44889-.16504.10128-.09588.13546-.2176.09338-.33239C.5222-.80757.40138-.90629.23803-.95636c-.16614-.05092-.35744-.04575-.51721.01397-.15704.05871-.26616.16358-.29604.28452-.0288.11658.01903.23596.13071.32607.11618.09374.2888.14562.46805.14066Zm.00048.01454c-.18325.00506-.35972-.04793-.47847-.14364-.1141-.09197-.16298-.21379-.13358-.33275.03053-.12354.14217-.23067.30283-.2906.16337-.06093.35893-.06616.52874-.01412.16698.05117.29044.15201.33494.27352.04289.11714.00792.24131-.09557.33913-.1072.10132-.27632.16342-.45889.16846Z"/>
    <path d="M-.28026-.95993c-.16948.04949-.30357.14183-.37356.25726-.06979.11509-.07035.24404-.00157.35939.06968.11689.20495.21044.37632.26022.17815.05176.37998.05176.55814 0 .17137-.04978.30664-.14333.37632-.26021.06878-.11536.06822-.24431-.00157-.3594C.58383-.8181.44974-.91044.28026-.95993c.01695.00495.03466.01061.053.0171.16176.05717.28515.15379.34504.27016.05946.11554.05192.24198-.02111.35392-.07462.11439-.21194.20492-.38325.25262-.17544.04884-.37244.04884-.54789-.00001-.1713-.04769-.30862-.13822-.38324-.25261-.07303-.11194-.08057-.23839-.02111-.35393.05989-.11636.18328-.21298.34504-.27015.01834-.00649.03605-.01215.053-.0171Z"/>
    <path d="M-.62763-.77851c-.12894.10395-.19458.23614-.18403.37056.01063.13537.09777.26315.24408.35783.15179.09823.35549.15323.56758.15323s.41578-.055.56757-.15323C.71388-.1448.80103-.27258.81166-.40795.82221-.54237.75657-.67456.62763-.77851c.00784.00632.01559.01276.02324.01932.12362.10599.18389.23842.16928.37196-.01473.1347-.10459.26099-.25215.3543C.41502.0638.21158.11779 0 .11779c-.21158 0-.41502-.05399-.56799-.15072-.14756-.09331-.23743-.2196-.25216-.3543-.01461-.13354.04565-.26597.16928-.37196.00765-.00656.0154-.013.02324-.01932Z"/>
    <path d="M-.81647-.57739c-.09902.14002-.10859.2998-.02661.44439.08409.14833.25745.26819.48037.33202.23105.06617.49438.06617.72542 0C.58563.13518.75899.01533.84308-.133.92506-.27759.91549-.43737.81647-.57739c.0049.00693.00971.01392.01443.02097.09419.14064.09952.29959.01486.44276C.75894.03316.58462.1513.36192.21415c-.23078.06514-.49306.06514-.72384 0C-.58462.1513-.75894.03316-.84576-.11366c-.08466-.14317-.07933-.30212.01486-.44276a.99855623.99855623 0 0 1 .01443-.02097Z"/>
    <path d="M-.93192-.36266c-.05453.14012-.0284.28797.07372.41703.106.13396.28655.23842.50695.29326.22575.05617.47676.05617.7025 0C.57166.29279.75221.18832.85821.05436c.10212-.12905.12824-.2769.07371-.41702.0029.00744.00564.01476.00826.02197.05061.13967.0215.28615-.08222.41362C.75029.20525.56951.30813.34979.36209c-.22497.05524-.47461.05524-.69958 0C-.56952.30813-.75029.20524-.85796.07292c-.10372-.12747-.13283-.27394-.08222-.41361.00262-.00721.00536-.01453.00826-.02197Z"/>
    <path d="M-.99003-.14086c-.02344.16476.06267.32836.23873.45342.18955.13464.4652.21176.75482.21113C.29066.52306.56335.44607.7513.31256.92736.1875 1.01347.02389.99003-.14086c.00108.00757.00205.01501.00292.02231C1.01256.04572.9231.20792.74483.33117.55505.46238.28235.53723-.00373.53657-.2872.53592-.55681.46119-.74488.33113-.92312.20788-1.01256.0457-.99295-.11855c.00091-.00759.00188-.01503.00292-.02231Z"/>
    <path d="M-.99669.08129c.01217.14917.11793.29019.29635.39503.18752.11019.4405.17174.7038.1712C.26439.64698.51461.5855.70045.47626.8788.37142.98453.23043.99669.08129.9961.08848.99543.0958.99465.10326.97937.25047.87227.38903.69425.4918.50744.59965.257.65976-.00344.65923-.26157.6587-.5093.59863-.69444.4917-.87235.38893-.97938.25042-.99465.10326-.99543.0958-.9961.08848-.99669.08129Z"/>
    <path d="M-.95487.29702c.0391.1257.15144.23993.31842.32373.17651.08857.40253.13737.63645.13737.23396 0 .46002-.04881.63653-.13742C.80347.53691.91578.4227.95487.29702.95273.3039.95047.31089.9481.31799.90675.44126.79405.55287.62835.63458.45337.72088.23049.76833-.00001.76833c-.23053 0-.45344-.04747-.62843-.13379C-.79409.55283-.90676.44124-.9481.31799-.95047.31089-.95273.3039-.95487.29702Z"/>
    <path d="M-.86615.49979c.07812.13537.25428.24632.48574.30581.24151.06207.51958.06205.76105-.00006C.612.74604.78806.63511.86615.49979.86248.50615.85867.51259.85471.51911.77474.65078.60028.75816.37279.81561.1358.87547-.13612.87545-.37307.81554-.60042.75807-.77477.65072-.85471.51911-.85852.51284-.86233.5064-.86615.49979Z"/>
    <path d="M-.73002.68343c.09082.097.24456.17255.43189.21218.19192.0406.40512.04055.59697-.00015C.48586.85579.63932.78031.73002.68343.72464.68917.71918.69487.71363.70052.62232.79354.47154.86559.28919.90329.10276.94184-.10359.94179-.28995.90314-.47197.86539-.62246.7934-.71363.70052-.71918.69487-.72464.68917-.73002.68343Z"/>
    <path d="M-.53891.84236c.1327.0849.33119.13405.5406.13379C.20988.97588.40694.92679.53891.84236.53127.84725.52357.85203.5158.85671c-.13008.07832-.31888.12323-.51732.123C-.19888.97948-.3864.93462-.5158.85671-.52357.85203-.53127.84725-.53891.84236Z"/>
    <path d="M-.23596.97176c.14929.03625.3226.03626.47192 0C.21955.97575.20223.97951.18404.98292c-.1188.02224-.24926.02225-.36808 0C-.20223.97951-.21955.97575-.23596.97176Z"/>
    <path d="M-.04127-.99915c.01288-.00053.02975.18449.04439.48721.01539.31787.02586.71472.02723 1.03115C.03164.81764.02463.99978.01186.99993.01776.99986.02367.99974.02957.99956.04144.99921.04748.81272.04546.50867.04334.19079.03275-.20494.01791-.52028.00388-.81836-.01184-1-.02357-.99972c-.0059.00014-.0118.00033-.0177.00057Z"/>
    <path d="M-.17175-.98514c.04312-.00752.0973.07753.15191.23881.0627.1852.12031.45415.15813.73842.03742.2812.05192.55069.03991.74124C.16781.89813.13838.99131.09555.99542.10151.99485.10747.99423.11342.99355.15614.98867.18498.89189.19424.72181.20486.52659.18873.25241.1499-.03125.11151-.31174.05455-.57499-.00681-.75564c-.05309-.15633-.10547-.23893-.1472-.23243-.00592.00092-.01183.0019-.01774.00293Z"/>
    <path d="M-.30525-.95227c.07523-.02412.17214.0474.2708.20005.1088.16834.21006.42036.27873.69379.06816.27139.09792.53884.08206.73714C.31184.85984.26043.96872.18278.98315.18898.982.19507.98081.20104.97958.27703.96399.32713.85568.34111.67635.3567.47644.32604.20604.25669-.06788.18787-.33975.0873-.58993-.02041-.75729c-.09733-.15121-.19278-.2228-.26707-.2005-.00604.00182-.01196.00366-.01777.00552Z"/>
    <path d="M-.44352-.89627c.1007-.04983.2355-.0044.37584.12681.1539.14389.30051.37784.40291.64302.10157.26302.1501.53203.13358.74036C.45363.80543.38471.92985.27675.96094.28315.9591.28942.95722.29556.95532.40179.92246.469.7972.48299.60575.4983.3961.44846.12589.3458-.13768.24399-.39909.09968-.62971-.05176-.77303c-.1394-.13194-.27348-.17912-.37408-.13177-.00603.00284-.01192.00568-.01768.00853Z"/>
    <path d="M-.58664-.80985c.11707-.0848.28404-.07564.46382.02555.19378.10908.38446.31491.52332.565.13766.2479.21125.51564.20232.73592-.00836.20609-.08828.35294-.22193.408C.38728.92199.39375.91925.40031.91638.53138.85912.60884.71149.61561.50581.62291.28436.54763.01586.40867-.2321c-.13773-.24578-.3251-.44832-.5157-.55748-.17855-.10226-.34484-.1139-.4624-.03246-.00588.00408-.01162.00814-.01721.01219Z"/>
    <path d="M-.73082-.68257c.11888-.12728.30698-.16609.52033-.10728.22528.06211.45725.22711.63593.45233.17868.22521.28659.48863.29583.72214C.73002.60575.64945.7801.49846.86691.50524.86301.51184.85911.51827.85522.66516.7662.74233.59205.73204.37261.72108.1388.61187-.12437.43251-.34908c-.17776-.22271-.40735-.38621-.63055-.449-.21067-.05927-.39713-.02357-.51689.09889-.00526.00537-.01056.01091-.01589.01662Z"/>
    <path d="M-.86452-.5026c.08022-.13799.2193-.22867.39475-.25736.17924-.02932.38564.00783.58444.10521.20271.09929.38477.25497.51433.43981.12707.18127.19581.37941.19468.56103C.82257.52387.75458.67534.63071.77602.63725.7707.64372.76531.65012.75983.76983.65741.83414.50585.83285.32918.83153.1487.76184-.04737.63525-.22668.50619-.40947.32594-.56361.12533-.66273c-.19679-.09723-.4013-.13564-.5798-.10892-.17474.02615-.31447.11321-.39707.24737-.00442.00717-.00875.0144-.01298.02168Z"/>
    <path d="M-.96452-.26403c.0465-.16985.16559-.30708.337-.38832.173-.08199.38847-.10182.60911-.05603.22458.0466.43999.15817.60763.31472.16469.15379.27281.34122.30566.52982C.92742.32303.88405.49947.77214.63545.77799.62834.78374.62116.78939.61389.89593.4769.93491.30142.89984.1166.86444-.07001.7557-.25477.59201-.40642.42545-.56072.2125-.67101-.00963-.71802c-.2183-.04621-.43194-.02842-.60478.05033-.17119.07799-.29203.21108-.34245.37714-.00267.0088-.00523.01765-.00766.02652Z"/>
    <path d="M-.99982.01872c-.00348-.18581.0743-.36032.21972-.49292.14626-.13336.35153-.21576.57943-.23256.23171-.01708.47148.03477.67543.14607.20059.10947.35348.26932.43157.45119.07763.18084.07636.3719-.00359.53968C.90695.42135.91103.41245.91498.4035.98881.23607.98555.04732.90573-.13051.82542-.30946.67261-.46618.4737-.57359.27156-.68273.03482-.73393-.19436-.71806c-.22551.01561-.42942.09519-.5765.22496-.14617.12896-.22714.2995-.22908.48247a.95721636.95721636 0 0 0 .00012.02935Z"/>
    <path d="M-.95293.30318C-1.0099.12413-.9852-.06733-.8832-.2374c.10253-.17094.27653-.30922.491-.39018.218-.08229.4633-.09989.69082-.04955.22383.04952.41578.16156.54165.31611.12524.15378.17701.33976.14618.52511C.98807.1543.98956.1445.99089.13467 1.0158-.04861.96022-.23101.83369-.38119c-.12723-.15103-.31821-.26-.5398-.30797-.22511-.04873-.46726-.03137-.68312.049-.21246.0791-.38594.2142-.49032.38183-.10381.16671-.13279.35518-.08198.53303.00272.00953.00559.01903.0086.02848Z"/>
    <path d="M-.84079.54137C-.93924.38847-.96358.20284-.90959.01666c.05438-.18752.18475-.3637.36826-.49761.18666-.13621.41607-.21975.64661-.23548.22664-.01545.43978.03563.60201.14426.16107.10787.2618.26567.28473.44608-.0012-.00946-.00254-.0189-.00401-.02832C.96035-.33139.85716-.48503.69586-.58939.53334-.69454.32186-.74316.09763-.72691c-.22799.01652-.45462.09905-.63985.23301-.18216.13175-.31285.30498-.36969.49002-.05642.18365-.03664.36766.05598.52098.00494.00816.00998.01625.01514.02427Z"/>
    <path d="M-.7011.71306C-.82145.59474-.87936.42987-.86517.24595c.01436-.1862.10172-.38051.24721-.54978.14823-.17245.34735-.30794.56218-.38251.21086-.0732.42367-.08314.60214-.02815.1763.05432.30839.1687.37428.32409C.9172-.39852.91365-.4066.90999-.41463.8411-.56582.70823-.67614.53293-.72768.3549-.78002.14379-.7686-.06513-.6953c-.21283.07468-.41013.20892-.55772.37949-.14487.16742-.23299.35961-.24966.54442-.01641.18198.03744.34608.15279.46565.00612.00635.01233.01262.01862.0188Z"/>
    <path d="M-.56286.82655C-.68756.74163-.76172.60188-.77345.42962-.78539.2544-.73204.05587-.62219-.1332c.11146-.19185.27429-.36225.46088-.48231.18389-.11832.37978-.18062.55536-.17666.17262.0039.31559.07163.40608.19235C.79534-.60622.79044-.61259.78545-.61893.67095-.76423.47897-.82724.25459-.79311c-.23584.03587-.48507.17564-.68348.38328-.19842.20764-.32672.46295-.35184.70019-.0239.2257.04777.41461.19812.52239.00653.00468.01311.00928.01975.0138Z"/>
    <path d="M-.43784.89905C-.58105.82931-.66283.66994-.66456.45703c-.00186-.22785.08811-.49564.24682-.73454.15871-.2389.3707-.42563.58146-.51224.19695-.08093.37556-.06731.49536.03768C.65367-.75681.64811-.76158.64239-.76638.52164-.86759.34358-.87829.14797-.796c-.20911.08797-.419.27406-.57659.51126-.15757.23719-.24776.5028-.24781.72966-.00004.21222.07883.37221.21893.44429.0064.00329.01295.00657.01966.00984Z"/>
    <path d="M-.32733.94491C-.44868.90287-.52407.76843-.53716.57052-.5514.35531-.49069.08473-.37032-.17297c.12038-.25771.28893-.47792.46311-.60512.16018-.11697.31168-.14543.42179-.07935C.50868-.86099.50284-.86441.49707-.86771.38678-.93089.23598-.90033.07685-.78244c-.17279.12801-.33984.34744-.45953.60367-.1197.25624-.18077.52517-.16805.73984.01171.1977.08505.33297.20428.377.00647.00239.01284.00466.01912.00684Z"/>
    <path d="M-.22871.97349C-.32155.95168-.38223.83683-.39813.6525c-.0176-.20401.02122-.47482.10678-.74483.08557-.27.20981-.51373.3417-.67037.11916-.14154.23492-.20048.32337-.16484C.36773-.92995.36181-.93227.35597-.9345c-.08816-.03358-.2032.0268-.32156.16895-.1308.15709-.25405.40009-.33925.66894-.0852.26886-.1244.53848-.10796.74224.01488.18438.07415.3.16557.32333.00626.00159.01243.0031.01852.00453Z"/>
    <path d="M-.13853.99036C-.19874.98194-.23945.88185-.25253.70962-.26741.51385-.24529.24236-.1917-.03682c.05359-.27917.13356-.53955.21986-.71589.07592-.15514.15078-.23303.20983-.21856C.23208-.97272.22616-.97411.22023-.97545.16177-.98865.08766-.90997.01242-.7546c-.08551.17658-.1649.43653-.21837.71506-.05346.27854-.07596.54941-.0619.7451.01237.17219.05208.27272.11128.28211.006.00095.01202.00185.01804.00269Z"/>
    <path d="M-.05345.99857C-.09036.99659-.11032.81522-.10612.51926c.00458-.32295.03713-.72917.08404-1.04874.043-.29288.09159-.46879.12835-.46486-.0059-.00063-.0118-.00121-.01771-.00173-.03578-.00318-.08341.17313-.12583.46603C-.08351-.21075-.11601.19471-.12121.5173c-.00477.29594.01417.4776.05.48016.00591.00042.01183.00079.01776.00111Z"/>
  </g>
  <g fill="url(#b)" transform="matrix(400 0 0 -400 400 400)">
    <path d="M.28026-.95993c-.17884-.05221-.38168-.05221-.56052 0-.01695.00496-.03467.01061-.053.0171C-.23044-.97918-.11609-.99816 0-.99816s.23044.01898.33326.05533c-.01834-.00649-.03605-.01215-.053-.0171Z"/>
    <path d="M.62763-.77851C.47327-.90296.24301-.9751 0-.9751s-.47327.07214-.62763.19659c-.00784.00632-.01559.01276-.02324.01932.1021-.08753.24206-.15241.40126-.18598.16238-.03424.33684-.03424.49922 0 .1592.03357.29916.09845.40126.18598-.00765-.00656-.0154-.013-.02324-.01932Z"/>
    <path d="M.81647-.57739C.72146-.71174.5513-.81768.34043-.87371c-.21815-.05797-.4627-.05797-.68086-.00001-.21087.05604-.38103.16198-.47604.29633a.99855623.99855623 0 0 0-.01443.02097c.09304-.13894.26555-.24921.4814-.30766.2236-.06056.4754-.06056.699 0 .21585.05845.38836.16872.4814.30766a.99855623.99855623 0 0 0-.01443-.02097Z"/>
    <path d="M.93192-.36266C.86411-.53692.67789-.68333.4232-.7625c-.26688-.08296-.57953-.08296-.84642 0-.25468.07917-.44089.22558-.5087.39984-.0029.00744-.00564.01476-.00826.02197.04752-.13112.16254-.24863.32715-.33415C-.4404-.76454-.22369-.8136 0-.8136c.22368 0 .44039.04906.61303.13875.16461.08552.27963.20304.32715.33416C.93756-.3479.93482-.35522.93192-.36266Z"/>
    <path d="M.99003-.14086C.96894-.28907.86068-.4275.68547-.53016.5007-.63842.25526-.69883 0-.69883c-.25526 0-.50071.06041-.68547.16867-.17521.10266-.28347.24109-.30456.3893-.00108.00757-.00205.01501-.00292.02231.01786-.1496.12493-.28998.30084-.39431.18563-.11008.4338-.17165.69211-.17165s.50648.06157.69211.17166c.17591.10432.28298.2447.30084.3943C.99208-.12585.99111-.13329.99003-.14086Z"/>
    <path d="M.99669.08129C1.00957-.07657.91662-.23106.73825-.34804c-.18906-.124-.45712-.19474-.73826-.19474-.28113 0-.54919.07074-.73825.19474-.17837.11699-.2713.27147-.25843.42933.00059.00719.00126.01451.00204.02197-.01644-.15829.07458-.31396.25278-.43208C-.55289-.45409-.28315-.52571 0-.52571s.55289.07162.74187.19689c.1782.11812.26922.27378.25278.43208C.99543.0958.9961.08848.99669.08129Z"/>
    <path d="M.95487.29702C.99355.17268.95828.04442.85477-.0669.74437-.18564.56348-.27744.34528-.32541c-.22239-.0489-.46817-.0489-.69057 0-.21819.04797-.39908.13977-.50949.25851-.1035.11133-.13877.23958-.10009.36392.00222.00715.00448.01414.00677.02097-.04154-.12388-.00859-.25223.09347-.36391.10891-.11917.28935-.21156.50778-.25994.22324-.04944.47045-.04944.6937 0 .21843.04838.39887.14076.50778.25994.10206.11168.13501.24003.09347.36391C.95047.31089.95273.3039.95487.29702Z"/>
    <path d="M.86615.49979C.934.3822.92284.25482.83474.14149.74086.02072.56669-.07502.3489-.12551.12555-.1773-.12554-.1773-.34889-.12552c-.2178.0505-.39197.14624-.48585.26701-.0881.11333-.09926.24071-.03141.3583.00367.00636.00748.0128.01144.01932-.0708-.11657-.06225-.24357.02403-.35687.09189-.12068.26494-.21661.48221-.26725.22293-.05196.474-.05196.69693 0 .21727.05064.39033.14657.48222.26725.08628.1133.09483.2403.02403.35687C.85852.51284.86234.5064.86615.49979Z"/>
    <path d="M.73002.68343C.82762.57918.84496.45827.77826.34714.70757.22933.54872.1329.34032.08137c-.2161-.05344-.46453-.05344-.68063 0-.20841.05153-.36726.14796-.43795.26577-.0667.11113-.04936.23203.04824.33629.00538.00574.01084.01144.01639.01709C-.81427.598-.83479.47805-.77066.36735c.06796-.11731.22483-.2137.43189-.26528C-.12386.04853.12385.04852.33876.10206c.20706.05159.36393.14798.4319.26529.06413.1107.04361.23064-.05703.33317C.71916.69489.72462.68919.73002.68343Z"/>
    <path d="M.53891.84236C.6694.75888.72286.64942.68505.54335.64549.43234.51032.33711.31879.28543c-.20005-.05399-.43753-.05399-.63759 0-.19152.05168-.32669.14692-.36625.25792-.03781.10607.01565.21553.14614.29901.00764.00489.01534.00967.02311.01435C-.62633.79016-.68593.70461-.68322.6165-.68039.52488-.6104.43729-.48765.37187-.35918.3034-.18344.26481 0 .26481S.35918.3034.48765.37187C.6104.43729.68039.52488.68322.6165.68593.70461.62633.79016.5158.85671.52357.85203.53127.84725.53891.84236Z"/>
    <path d="M.23596.97176C.38537.93548.49485.86676.53412.78469.57214.70524.54056.62125.44757.55466.3444.48077.17769.43688.00001.43688c-.17769 0-.3444.04389-.44758.11777-.09299.0666-.12457.15059-.08655.23004.03927.08207.14875.15079.29816.18707.01641.00399.03373.00775.05192.01116C-.3409.95355-.46171.88842-.51057.807-.55742.7289-.53305.64418-.44413.57623-.34512.50057-.17847.45508 0 .45508c.17848 0 .34512.04549.44413.12115.08892.06795.11329.15267.06644.23076C.46171.88842.3409.95355.18404.98292.20063.97981.21797.97613.23596.97176Z"/>
    <path d="M.01583.99107C.13457.9886.24425.9586.31257.90992.37691.86408.39789.80642.37001.75217.34128.69628.26369.64984.15881.62583.04748.60035-.08152.60313-.18807.6333c-.09982.02827-.16898.0775-.18845.13406-.01893.05499.01101.11139.08202.15442.0761.04612.19094.07177.31033.06929ZM.01514.98852C-.09873.99088-.20824.96647-.28083.92257-.34863.88157-.37718.8278-.35904.77541-.34042.7216-.27449.67478-.17937.64789-.07777.61916.04524.6165.15142.64076c.09993.02283.1739.06698.20137.12014C.3795.81259.35953.86755.29812.91124.23297.95759.12838.98616.01514.98852Z"/>
    <path d="M.00848.95037C.08053.94886.14531.92825.17798.8965.20879.86655.20666.8309.17233.8019.13527.77059.06641.75183-.00699.7531c-.07403.00128-.1405.02272-.17273.05564-.02964.03027-.02607.06592.00949.0946.03786.03054.10627.04855.17871.04703ZM.0077.94442C-.05795.9458-.11994.92949-.15424.90183-.18647.87585-.18966.84354-.16272.81613-.13347.78637-.07327.767-.00625.76586.06012.76473.12239.78165.15599.80991c.03121.02626.0332.05856.00529.08571C.1317.92438.073.94305.0077.94442Z"/>
    <path d="M.01186.99993C-.00054 1.00008-.01668.82825-.031.54301-.04755.21336-.05882-.21069-.0598-.54073c-.00085-.28551.00614-.45791.01853-.45842.0059-.00024.0118-.00043.0177-.00057-.0114.00027-.01747.17265-.01608.45833.00161.33006.01288.75421.02881 1.08394.01378.28546.029.45735.04041.45701C.02365.99974.01774.99986.01186.99993Z"/>
    <path d="M.09555.99542C.05357.99945.0015.91765-.05115.76469-.11409.58181-.17225.31355-.21073.02847c-.03847-.28508-.05351-.55917-.0413-.7522.01021-.16147.03874-.25417.08028-.26141.0059-.00103.01181-.00201.01774-.00293-.04103.0064-.06907.09846-.07892.2596-.0118.19309.00356.46805.04218.75418.03861.28613.09669.55534.15925.73841.05222.15279.10367.23414.14492.22943C.10747.99423.10151.99485.09555.99542Z"/>
    <path d="M.18278.98315C.1085.99696.01538.92337-.07894.7761-.18636.60839-.28621.35944-.35432.08935c-.0681-.27009-.09823-.53662-.08318-.73521.01321-.17439.0603-.28335.13225-.30641.00581-.00186.01173-.00371.01777-.00552-.07191.02159-.11898.12964-.13217.30379-.01506.19889.01534.4669.08387.73866.06853.27176.16883.52214.2764.69012.09419.14708.18687.2199.26042.2048C.19507.98081.18898.982.18278.98315Z"/>
    <path d="M.27675.96094C.17453.99038.04461.93403-.08818.80253-.23426.65786-.37194.434-.46962.18212c-.09768-.25187-.14694-.51001-.1366-.71535.00941-.18664.06736-.31586.1627-.36304.00597-.00295.01187-.00579.01768-.00853-.09654.04544-.15528.17465-.16472.36263-.01032.20574.03925.46496.13736.71794.09811.25298.23628.47783.38262.62281.13371.13246.26421.18828.36614.15674C.28942.95722.28315.9591.27675.96094Z"/>
    <path d="M.38089.92462C.25775.97535.09791.94444-.06819.83769-.24572.7236-.41664.5317-.54398.30344-.67131.07517-.74479-.17107-.7486-.38207c-.00358-.1974.05411-.34965.16196-.42778.00559-.00405.01133-.00811.01721-.01219-.10993.07615-.16922.22813-.16631.42662.0031.21215.07701.46072.20556.69117.12856.23046.30123.42392.48012.53802.16736.10675.32783.13614.45037.08261C.39375.91925.38728.92199.38089.92462Z"/>
    <path d="M.49846.86691C.36482.94375.18566.94642-.00567.87434-.20673.79859-.40644.64588-.56391.44739-.72138.24891-.82468.0197-.85272-.19333c-.02667-.20271.01667-.37658.1219-.48924.00533-.00571.01063-.01125.01589-.01662-.10857.11101-.1544.28527-.12869.48974.02703.21499.1311.44723.29055.64821.15946.20099.36193.35516.56515.43038C.20534.94068.38546.9357.51827.85522.51158.85927.50498.86317.49846.86691Z"/>
    <path d="M.63071.77602C.49911.88297.31285.92578.10567.8966-.10816.86649-.32938.76181-.51542.60272-.70145.44364-.8392.24135-.90214.03479c-.06098-.20013-.04761-.39078.03762-.53739.00423-.00728.00856-.01451.01298-.02168-.08987.14596-.10631.33822-.04621.54109.06206.20946.20128.41525.39017.57677.18889.16153.4138.2671.63035.29589C.3325.91736.51988.87127.65012.75983.64372.76531.63725.7707.63071.77602Z"/>
    <path d="M.77214.63545C.65874.77325.48208.86084.27297.88289.05845.90551-.17602.85767-.38749.74814-.59896.63861-.77332.47471-.87861.28644-.98125.10293-1.01163-.0919-.96452-.26403c.00243-.00887.00499-.01771.00766-.02652-.05257.17312-.02526.37103.07706.55816.10501.19205.28187.35964.49717.47115.2153.11152.45423.15927.67168.13423C.50093.8486.67832.75671.78939.61389.78374.62116.77799.62834.77214.63545Z"/>
    <path d="M.90274.43018C.82421.59498.67462.72712.4793.80415.27951.88295.04464.89907-.18375.84968-.41213.80029-.61936.68856-.76874.53425-.91478.3834-.99641.20125-.99982.01872a.95708589.95708589 0 0 1-.00012-.02935c-.00197.18546.07736.37201.22414.52696.15021.15856.3611.27354.59408.32392.23299.05039.47255.03282.67484-.0495C.69082.7103.84014.5732.91498.4035.91103.41245.90695.42135.90274.43018Z"/>
    <path d="M.98645.16409C.95637.34488.84955.51394.68395.64274.51466.77442.29465.85571.06257.87236-.1695.889-.39886.83994-.58522.73377-.76751.62992-.89736.47784-.95293.30318-.95594.29373-.95881.28423-.96153.2747c.05117.17912.18007.33622.36429.44389.1884.11012.42227.16133.65912.14434C.29874.84595.52291.76189.69367.62601.86064.49315.9658.31926.99089.13467.98956.14449.98807.1543.98645.16409Z"/>
    <path d="M.99202-.12609C1.01484.05347.95918.24425.83453.41347.70688.58677.51516.72624.29383.80684.0725.88744-.16401.90392-.37321.85329-.57748.80386-.74279.69356-.84079.54137-.84595.53335-.851.52526-.85593.5171c.09501.15726.26063.27226.46757.3246.212.05362.45316.03788.67876-.04427C.516.71527.7108.57224.83868.39485c.12482-.17316.1777-.36774.14933-.54926.00147.00942.00281.01886.00401.02832Z"/>
    <path d="M.92064-.3904c.06822.16086.06116.35548-.01997.54922C.81724.35802.66116.54281.4617.67852.26225.81424.03307.8916-.18286.89609-.39287.90045-.5765.83557-.7011.71306a.97079523.97079523 0 0 1-.01862-.0188c.1228.12731.30741.19598.52013.19343C.01924.88506.25255.80724.45536.66924.65818.53124.81621.34278.89899.14019c.08046-.19693.08434-.39386.011-.55482.00366.00803.00721.0161.01065.02423Z"/>
    <path d="M.80013-.59982c.09772.13034.12797.31405.08511.51724C.84078.12824.7208.34496.54905.52468.37731.70441.16627.8341-.04231.88809-.24334.94012-.42822.91824-.56286.82655-.5695.82203-.57608.81743-.58261.81275c.13359.09576.31956.12043.52286.06927C.15131.82891.36558.69798.53972.51574.71386.3335.83492.1135.87839-.09975.92027-.30517.88718-.48982.78545-.61893c.00499.00634.00989.01271.01468.01911Z"/>
    <path d="M.65908-.75207c.10863.09519.16103.25865.14723.45955C.79171-.0798.704.15883.56158.37318.41918.58751.23321.76081.0428.85669c-.17983.09056-.3508.1056-.48064.04236C-.44455.89578-.45111.8925-.4575.88921c.12913.06643.30085.05331.48225-.03696C.21697.7566.40526.58168.54928.36491.69329.14813.78155-.09323.79523-.30751.80813-.50971.75367-.6731.64239-.76638c.00572.0048.01128.00957.01669.01431Z"/>
    <path d="M.51458-.85744c.10325.06196.16267.20261.16681.3951.00448.20842-.0562.4611-.16866.70184C.40028.48025.24544.68895.08272.81928c-.15027.12036-.29627.16504-.41005.12563C-.33361.94273-.33998.94046-.34645.93807c.11333.04185.2599-.00178.41124-.12255C.22835.685.38431.4749.49758.23242.61085-.01006.67187-.2645.667-.4737.6625-.66726.6019-.80766.49707-.86771c.00577.0033.01161.00672.01751.01027Z"/>
    <path d="M.37372-.92754c.0848.03417.13852.15287.1508.33358.01373.20191-.02539.46442-.10823.72584C.33344.39334.21421.6305.08668.78766c-.11412.14065-.2264.20674-.31539.18583C-.2348.97206-.24097.97055-.24723.96896c.08832.02253.20041-.04271.3147-.18337C.19539.62817.31532.38956.39873.12637c.0834-.26319.1228-.52733.1089-.7297C.49521-.78415.44116-.90205.35597-.9345c.00584.00223.01176.00455.01775.00696Z"/>
    <path d="M.23799-.97127c.05728.01404.09579.11405.10827.28162.01457.1956-.00757.46619-.06098.74442C.23186.33306.15224.59265.06626.76895c-.07361.15097-.14639.22958-.20479.22141-.006-.00084-.01201-.00174-.01804-.00269.05767.00914.12992-.06888.20324-.21972C.13249.59141.21226.33066.26593.05105c.05367-.2796.07611-.55136.06176-.74713C.31542-.86336.27719-.96259.22023-.97545c.00593.00134.01185.00273.01776.00418Z"/>
    <path d="M.10627-.99434c.03584.00383.05555.17818.05228.46379C.15476-.20015.12092.22211.07204.54893c-.04226.28254-.08949.45157-.12549.44964A1.04452083 1.04452083 0 0 1-.07121.99746c.03499.0025.08136-.16632.12315-.44901C.10033.22109.13425-.20222.13862-.53312.14239-.81889.12351-.99296.08856-.99607c.00588.00052.01179.0011.01771.00173Z"/>
  </g>
</svg>